# WaveFront *.obj file (generated by CINEMA 4D)

mtllib ./Our_Diamond.mtl

v -8644.61035156250000 -8644.61035156250000 -8644.61035156250000
v -8644.61035156250000 8644.61035156250000 -8644.61035156250000
v 8644.61035156250000 -8644.61035156250000 -8644.61035156250000
v 8644.61035156250000 8644.61035156250000 -8644.61035156250000
v 8644.61035156250000 -8644.61035156250000 8644.61035156250000
v 8644.61035156250000 8644.61035156250000 8644.61035156250000
v -8644.61035156250000 -8644.61035156250000 8644.61035156250000
v -8644.61035156250000 8644.61035156250000 8644.61035156250000
# 8 vertices

vn 0.00000000000000 0.00000000000000 -1.00000000000000
vn 0.00000000000000 -1.00000000000000 0.00000000000000
# 2 normals

vt 0.00000000000000 -1.00000000000000 0.00000000000000
vt 0.00000000000000 0.00000000000000 0.00000000000000
vt 1.00000000000000 0.00000000000000 0.00000000000000
vt 1.00000000000000 -1.00000000000000 0.00000000000000
# 4 texture coordinates

o Cube.2
usemtl Cyc Material
f 1/4/1 2/3/1 4/2/1 3/1/1
f 7/4/2 1/3/2 3/2/2 5/1/2

v -1286.78332519531250 -1286.78332519531250 -1286.78332519531250
v -1286.78332519531250 1286.78332519531250 -1286.78332519531250
v 1286.78332519531250 -1286.78332519531250 -1286.78332519531250
v 1286.78332519531250 1286.78332519531250 -1286.78332519531250
v 1286.78332519531250 -1286.78332519531250 1286.78332519531250
v 1286.78332519531250 1286.78332519531250 1286.78332519531250
v -1286.78332519531250 -1286.78332519531250 1286.78332519531250
v -1286.78332519531250 1286.78332519531250 1286.78332519531250
# 8 vertices

# 0 normal

# 0 texture coordinate

o Base
usemtl Cyc Material
f 9/4/1 10/3/1 12/2/1 11/1/1
f 15/4/2 9/3/2 11/2/2 13/1/2

v 0.01900921203196 -66.77249908447266 0.04715242981911
v 12.94858360290527 -40.06349945068359 32.12444686889648
v -0.16071142256260 25.55667495727539 108.67599487304688
v 57.90294647216797 26.18373680114746 86.66066741943359
v 40.60884094238281 66.77249908447266 42.14486312866211
v -12.80904293060303 -40.06349945068359 31.56900215148926
v -2.03349757194519 66.77249908447266 57.49887084960938
v -0.04559707269073 -66.77249908447266 0.01837596297264
v -108.60932159423828 25.55667495727539 -3.80968999862671
v -76.91202545166016 25.55667495727539 74.15167999267578
v -92.47458648681641 28.97577476501465 35.87464904785156
v -28.91491699218750 56.53684616088867 68.62877655029297
v -76.68474578857422 25.55667495727539 -79.53939056396484
v -93.21375274658203 25.55667495727539 -40.33020019531250
v -84.96958160400391 28.34871292114258 -59.88657379150391
v -84.94924926757812 26.18373680114746 -59.93479537963867
v -70.97318267822266 56.53684616088867 -29.90266990661621
v -59.46306991577148 66.77249908447266 -2.10296297073364
v 0.16071142256260 25.55667495727539 -108.67599487304688
v -76.68474578857422 28.97577476501465 -79.53939056396484
v -57.95229721069336 28.34871292114258 -86.64196014404297
v -57.90294647216797 26.18373680114746 -86.66066741943359
v 84.94752502441406 26.18373680114746 59.93888092041016
v -40.60884094238281 66.77249908447266 -42.14486312866211
v 0.01880045607686 -66.77249908447266 -0.04633557423949
v 76.91202545166016 25.55667495727539 -74.15167999267578
v 12.80904293060303 -40.06349945068359 -31.56900215148926
v 0.16071142256260 28.97577476501465 -108.67599487304688
v 19.24761390686035 28.34871292114258 -100.09031677246094
v 19.23650741577148 26.18373680114746 -100.09531402587891
v 0.00000000000000 -66.77249908447266 0.00000000000000
v 0.04568354040384 -66.77249908447266 0.02034803479910
v 31.12110519409180 -40.06349945068359 13.86182785034180
v 84.68856811523438 26.18373680114746 -55.02480697631836
v 92.46511077880859 25.55667495727539 -35.89793777465820
v 76.91202545166016 28.97577476501465 -74.15167999267578
v 43.48464202880859 66.77249908447266 -39.17082214355469
v 84.96784210205078 28.34871292114258 59.89068603515625
v 108.60932159423828 28.97577476501465 3.80968999862671
v 70.97318267822266 56.53684616088867 29.90266990661621
v 59.46306991577148 66.77249908447266 2.10296297073364
v -0.01880045607686 -66.77249908447266 0.04633557423949
v 19.52956962585449 28.34871292114258 101.21025848388672
v -0.16071142256260 28.97577476501465 108.67599487304688
v 19.48021888732910 26.18373680114746 101.22897338867188
v 100.90981292724609 26.18373680114746 22.07402992248535
v -38.33451843261719 28.97577476501465 91.50463104248047
v -19.24761390686035 28.34871292114258 100.09031677246094
v 92.47458648681641 28.97577476501465 -35.87464904785156
v -70.63155364990234 56.53684616088867 27.38349533081055
v -43.48464202880859 66.77249908447266 39.17082214355469
v -0.04568354040384 -66.77249908447266 -0.02034803479910
v 84.69330596923828 28.34871292114258 -55.01316070556641
v -93.25440979003906 28.97577476501465 -40.23375320434570
v -100.93186187744141 28.34871292114258 -22.02172088623047
v -0.01900921203196 -66.77249908447266 -0.04715242981911
v -19.52956962585449 28.34871292114258 -101.21025848388672
v -57.62327194213867 28.34871292114258 82.82815551757812
v -76.91202545166016 28.97577476501465 74.15167999267578
v -57.61216354370117 26.18373680114746 82.83315277099609
v -29.73968505859375 56.53684616088867 -69.67225646972656
v 2.03349757194519 66.77249908447266 -57.49887084960938
v 0.04559707269073 -66.77249908447266 -0.01837596297264
v -84.68856811523438 26.18373680114746 55.02480697631836
v 108.60932159423828 25.55667495727539 3.80968999862671
v 93.21031188964844 25.55667495727539 40.33836746215820
v 100.93013000488281 28.34871292114258 22.02583694458008
v 93.25093841552734 28.97577476501465 40.24198150634766
v 57.95229721069336 28.34871292114258 86.64196014404297
v 29.73968505859375 56.53684616088867 69.67225646972656
v -31.06330490112305 -40.06349945068359 12.52086257934570
v -92.46511077880859 25.55667495727539 35.89793777465820
v -84.69330596923828 28.34871292114258 55.01316070556641
v -100.54195404052734 28.34871292114258 16.03247833251953
v -31.12110519409180 -40.06349945068359 -13.86182785034180
v -100.91153717041016 26.18373680114746 -22.06994438171387
v -12.94858360290527 -40.06349945068359 -32.12444686889648
v -19.48021888732910 26.18373680114746 -101.22897338867188
v -39.12114715576172 25.55667495727539 -93.78194427490234
v -39.21985244750977 28.97577476501465 -93.74452209472656
v 38.33451843261719 28.97577476501465 -91.50463104248047
v 57.62327194213867 28.34871292114258 -82.82815551757812
v 57.61216354370117 26.18373680114746 -82.83315277099609
v 28.91491699218750 56.53684616088867 -68.62877655029297
v 31.06330490112305 -40.06349945068359 -12.52086257934570
v 70.63155364990234 56.53684616088867 -27.38349533081055
v 39.21985244750977 28.97577476501465 93.74452209472656
v 39.12114715576172 25.55667495727539 93.78194427490234
v -38.31230163574219 25.55667495727539 91.51462554931641
v -19.23650741577148 26.18373680114746 100.09531402587891
v -108.60932159423828 28.97577476501465 -3.80968999862671
v -100.53721618652344 26.18373680114746 16.04412460327148
v 38.31230163574219 25.55667495727539 -91.51462554931641
v 100.54195404052734 28.34871292114258 -16.03247833251953
v 100.53721618652344 26.18373680114746 -16.04412460327148
v 76.68474578857422 28.97577476501465 79.53939056396484
v 76.68474578857422 25.55667495727539 79.53939056396484
# 97 vertices

vt 0.50000000000000 -0.50000000000000 0.00000000000000
vt 0.00000000000000 -0.50000000000000 0.00000000000000
vt 0.14644661545753 -0.14644661545753 0.00000000000000
vt 0.00000000000000 -0.79999995231628 0.00000000000000
vt 0.12500000000000 -0.60000002384186 0.00000000000000
vt 0.12500000000000 -0.79999995231628 0.00000000000000
vt 0.06110250204802 -0.60000002384186 0.00000000000000
vt 0.09305125474930 -0.60000002384186 0.00000000000000
vt 0.00000000000000 -0.60000002384186 0.00000000000000
vt 0.00000000000000 -0.39999997615814 0.00000000000000
vt 0.03047097474337 -0.39999997615814 0.00000000000000
vt 0.03055125102401 -0.60000002384186 0.00000000000000
vt 0.00000000000000 -0.19999998807907 0.00000000000000
vt 0.12500000000000 -0.19999998807907 0.00000000000000
vt 0.12500000000000 0.00000000000000 0.00000000000000
vt 0.85355341434479 -0.14644661545753 0.00000000000000
vt 1.00000000000000 -0.50000000000000 0.00000000000000
vt 0.85355341434479 -0.85355341434479 0.00000000000000
vt 0.50000000000000 0.00000000000000 0.00000000000000
vt 0.12500000000000 -1.00000000000000 0.00000000000000
vt 0.25000000000000 -0.60000002384186 0.00000000000000
vt 0.25000000000000 -0.79999995231628 0.00000000000000
vt 0.15606753528118 -0.60000002384186 0.00000000000000
vt 0.18713507056236 -0.60000002384186 0.00000000000000
vt 0.12500000000000 -0.39999997615814 0.00000000000000
vt 0.15608562529087 -0.39999997615814 0.00000000000000
vt 0.25000000000000 -0.19999998807907 0.00000000000000
vt 0.25000000000000 0.00000000000000 0.00000000000000
vt 0.50000000000000 -1.00000000000000 0.00000000000000
vt 0.25000000000000 -1.00000000000000 0.00000000000000
vt 0.37500000000000 -0.60000002384186 0.00000000000000
vt 0.37500000000000 -0.79999995231628 0.00000000000000
vt 0.28066721558571 -0.60000002384186 0.00000000000000
vt 0.31133443117142 -0.60000002384186 0.00000000000000
vt 0.31137180328369 -0.39999997615814 0.00000000000000
vt 0.34318590164185 -0.39999997615814 0.00000000000000
vt 0.34316721558571 -0.60000002384186 0.00000000000000
vt 0.25000000000000 -0.39999997615814 0.00000000000000
vt 0.37500000000000 -0.19999998807907 0.00000000000000
vt 0.37500000000000 0.00000000000000 0.00000000000000
vt 0.14644661545753 -0.85355341434479 0.00000000000000
vt 0.37500000000000 -1.00000000000000 0.00000000000000
vt 0.50000000000000 -0.60000002384186 0.00000000000000
vt 0.50000000000000 -0.79999995231628 0.00000000000000
vt 0.43528100848198 -0.60000002384186 0.00000000000000
vt 0.46764051914215 -0.60000002384186 0.00000000000000
vt 0.43512183427811 -0.39999997615814 0.00000000000000
vt 0.46756091713905 -0.39999997615814 0.00000000000000
vt 0.37500000000000 -0.39999997615814 0.00000000000000
vt 0.50000000000000 -0.19999998807907 0.00000000000000
vt 0.50000000000000 -0.39999997615814 0.00000000000000
vt 0.62500000000000 -0.60000002384186 0.00000000000000
vt 0.62500000000000 -0.79999995231628 0.00000000000000
vt 0.56110250949860 -0.60000002384186 0.00000000000000
vt 0.59305125474930 -0.60000002384186 0.00000000000000
vt 0.53047096729279 -0.39999997615814 0.00000000000000
vt 0.53055125474930 -0.60000002384186 0.00000000000000
vt 0.62500000000000 -0.19999998807907 0.00000000000000
vt 0.62500000000000 0.00000000000000 0.00000000000000
vt 0.56094193458557 -0.39999997615814 0.00000000000000
vt 0.62500000000000 -1.00000000000000 0.00000000000000
vt 0.75000000000000 -0.60000002384186 0.00000000000000
vt 0.75000000000000 -0.79999995231628 0.00000000000000
vt 0.65606755018234 -0.60000002384186 0.00000000000000
vt 0.68713510036469 -0.60000002384186 0.00000000000000
vt 0.62500000000000 -0.39999997615814 0.00000000000000
vt 0.65608561038971 -0.39999997615814 0.00000000000000
vt 0.75000000000000 -0.19999998807907 0.00000000000000
vt 0.75000000000000 0.00000000000000 0.00000000000000
vt 0.68717128038406 -0.39999997615814 0.00000000000000
vt 0.75000000000000 -1.00000000000000 0.00000000000000
vt 0.87500000000000 -0.60000002384186 0.00000000000000
vt 0.87500000000000 -0.79999995231628 0.00000000000000
vt 0.78066718578339 -0.60000002384186 0.00000000000000
vt 0.81133443117142 -0.60000002384186 0.00000000000000
vt 0.81137180328369 -0.39999997615814 0.00000000000000
vt 0.84318590164185 -0.39999997615814 0.00000000000000
vt 0.84316718578339 -0.60000002384186 0.00000000000000
vt 0.75000000000000 -0.39999997615814 0.00000000000000
vt 0.87500000000000 -0.19999998807907 0.00000000000000
vt 0.87500000000000 0.00000000000000 0.00000000000000
vt 0.87500000000000 -0.39999997615814 0.00000000000000
vt 0.87500000000000 -1.00000000000000 0.00000000000000
vt 1.00000000000000 -0.60000002384186 0.00000000000000
vt 1.00000000000000 -0.79999995231628 0.00000000000000
vt 0.93529450893402 -0.60000002384186 0.00000000000000
vt 0.96764725446701 -0.60000002384186 0.00000000000000
vt 0.93513542413712 -0.39999997615814 0.00000000000000
vt 0.96756768226624 -0.39999997615814 0.00000000000000
vt 1.00000000000000 -0.19999998807907 0.00000000000000
vt 1.00000000000000 -0.39999997615814 0.00000000000000
vt 0.09297097474337 -0.39999997615814 0.00000000000000
vt 0.06094194948673 -0.39999997615814 0.00000000000000
vt 0.90506768226624 -0.39999997615814 0.00000000000000
vt 0.90514725446701 -0.60000002384186 0.00000000000000
vt 0.18717125058174 -0.39999997615814 0.00000000000000
vt 0.78068590164185 -0.39999997615814 0.00000000000000
vt 0.28068590164185 -0.39999997615814 0.00000000000000
vt 0.71858561038971 -0.39999997615814 0.00000000000000
vt 0.71856755018234 -0.60000002384186 0.00000000000000
vt 0.40506091713905 -0.39999997615814 0.00000000000000
vt 0.59297096729279 -0.39999997615814 0.00000000000000
vt 0.21858562529087 -0.39999997615814 0.00000000000000
vt 0.21856753528118 -0.60000002384186 0.00000000000000
vt 0.40514051914215 -0.60000002384186 0.00000000000000
# 105 texture coordinates

o Diamond
usemtl Mat.1
f 47/7 17/7 58/6
f 17/10 18/9 19/8 22/1
f 18/9 104/12 61/11 19/8
f 113/16 112/15 85/14 20/13
f 112/18 56/18 86/17
f 56/19 57/19 21/2
f 57/23 53/23 78/7 40/5 34/23 67/22 23/21 21/20
f 47/23 58/23 24/7
f 58/26 22/25 26/10 87/24
f 22/28 19/27 106/9 105/10
f 19/27 60/30 64/29 106/9
f 60/31 86/31 28/18
f 86/32 21/32 23/19
f 1 1 1
f 47/20 24/20 68/23
f 24/36 87/35 25/26 91/34
f 87/38 26/37 80/25 88/26
f 27/38 90/41 108/40 88/39
f 75/43 28/43 66/31
f 28/44 23/44 67/32
f 1 1 1
f 47/21 68/21 72/20
f 68/48 91/47 29/36 93/46
f 91/47 30/50 32/49 29/36
f 70/49 31/50 32/52 30/51
f 107/54 66/54 33/43
f 66/23 67/23 34/44
f 31/50 36/47 29/55 32/52
f 47/22 72/22 41/21
f 72/57 93/56 35/48 43/33
f 93/56 95/59 94/58 35/48
f 29/61 36/60 37/55 38/47
f 36/62 33/62 77/54
f 33/63 34/63 40/23
f 37/61 96/58 95/64 38/60
f 47/33 41/33 79/22
f 41/67 43/66 42/57 101/65
f 43/69 35/68 46/56 109/57
f 35/68 44/71 45/70 46/56
f 44/72 77/72 100/62
f 77/73 40/73 78/63
f 45/68 97/69 109/74 46/71
f 47/45 79/45 48/33
f 79/77 101/76 81/67 49/75
f 101/79 42/78 50/66 51/67
f 65/79 110/82 111/81 51/80
f 52/84 100/84 102/72
f 100/85 78/85 53/73
f 110/82 55/76 81/86 111/81
f 47/6 48/6 17/45
f 48/89 49/88 113/77 18/87
f 49/88 82/91 39/90 113/77
f 84/90 54/91 39/93 82/92
f 55/94 102/94 56/84
f 102/3 53/3 57/85
f 54/91 112/88 113/95 39/93
f 17/24 22/24 58/10
f 59/12 60/9 19/29 61/96
f 100/84 53/84 102/85
f 86/97 60/96 59/29 103/18
f 56/18 21/18 86/19
f 58/34 87/34 24/26
f 83/99 84/90 82/92 62/98
f 102/94 57/94 56/3
f 28/29 63/30 64/100 60/31
f 86/31 23/31 28/32
f 24/46 91/46 68/36
f 69/78 65/79 51/80 50/101
f 56/86 84/98 83/92 55/94
f 66/42 27/102 89/39 75/43
f 28/43 67/43 66/44
f 68/33 93/33 72/48
f 98/104 52/66 42/83 99/103
f 52/101 102/80 65/84 69/83
f 107/105 33/51 70/54 71/53
f 66/54 34/54 33/23
f 72/65 43/65 41/57
f 73/59 44/56 35/70 94/106
f 74/108 75/25 26/42 76/107
f 77/55 96/60 37/64 36/62
f 33/62 40/62 77/63
f 41/75 101/75 79/67
f 71/109 70/49 30/51 92/105
f 48/4 18/4 17/89
f 100/70 97/71 45/74 44/72
f 77/72 78/72 100/73
f 79/87 49/87 48/77
f 89/37 27/38 88/39 80/102
f 49/90 81/99 62/76 82/77
f 62/98 81/86 55/76 83/99
f 56/92 112/93 54/95 84/94
f 18/11 113/16 20/13 104/8
f 103/11 59/12 61/96 104/97
f 85/97 112/18 86/14 103/15
f 76/28 26/10 22/25 105/108
f 63/28 74/108 76/107 105/100
f 28/100 75/107 74/42 63/31
f 108/38 25/26 87/35 88/41
f 80/102 26/42 75/25 89/37
f 66/39 107/40 90/53 27/43
f 91/49 25/109 92/35 30/36
f 92/105 25/53 107/35 71/109
f 33/51 36/52 31/55 70/54
f 93/58 29/61 38/47 95/48
f 96/58 73/59 94/106 95/64
f 77/64 44/106 73/70 96/62
f 109/57 99/66 42/104 43/69
f 97/69 98/104 99/103 109/74
f 100/74 52/103 98/83 97/72
f 51/67 111/76 81/82 101/79
f 50/101 42/83 52/66 69/78
f 102/80 55/81 110/86 65/84
f 85/16 103/11 104/97 20/15
f 64/27 63/28 105/100 106/30
f 90/41 107/35 25/53 108/40

